/* XPM */
static char *result[] = {
/* columns rows colors chars-per-pixel */
"25 50 42 1 ",
"  c black",
". c #010100",
"X c #0C1003",
"o c #182006",
"O c #182106",
"+ c #192106",
"@ c #233009",
"# c #2F400C",
"$ c #30410C",
"% c #3B4F0F",
"& c #3B500F",
"* c #475E12",
"= c #475F12",
"- c #476012",
"; c #486112",
": c #527015",
"> c #527115",
", c #547016",
"< c #5E8018",
"1 c #5F8019",
"2 c #608019",
"3 c #698F1B",
"4 c #6A901B",
"5 c #759E1E",
"6 c #769E1E",
"7 c #769F1F",
"8 c #76A01E",
"9 c #76A01F",
"0 c #81AF21",
"q c #81AE22",
"w c #8DBF24",
"e c #8EBF25",
"r c #98CE27",
"t c #99CF28",
"y c #A4DE2A",
"u c #A4DE2B",
"i c #A5DF2B",
"p c #B1EF2E",
"a c #BCFD31",
"s c #BCFE31",
"d c #BDFE31",
"f c #BDFF31",
/* pixels */
"                         ",
" ffffffffffffffffffffffs ",
" ffffffffffffffffffffffs ",
" ffffffffffffffffffffffs ",
" ffffffffffffffffffffffs ",
" ffffffffffffffffffffffs ",
" ffffffffffffffffffffffs ",
" ffffffffffffffffffffffs ",
" ffffffffffffffffffffffs ",
" ffffffffffffffffffffffs ",
" ffffffffffffffffffffffs ",
" ffffffffffffffffffffffs ",
" ffffffffffffffffffffffs ",
" ffffffffffffffffffffffs ",
" ffffffffffffffffffffffs ",
" ffffffffffffffffffffffs ",
" ffffffffffffffffffffffs ",
" ffffffffp4-#-wffffffffs ",
" fffffffio     <fffffffs ",
" ffffffio oefq  <ffffffs ",
" ffffff=  9ffs# .ifffffs ",
" ffffffX offfd:  >fffffs ",
" fffffw  &ffff6  +fffffs ",
" fffff4  <ffff6  .fffffs ",
" fffff<  8ffff0  .iffffs ",
" fffff-  8ffff5  .iffffs ",
" fffff<  4ffff3  .pffffs ",
" fffff4  :fffd*  +fffffs ",
" ffffft  #fffso  ;fffffs ",
" ffffff@  uffu  .ifffffs ",
" ffffff7  #ry% .,ffffffs ",
" fffffff-     .$fffffffs ",
" ffffffff1+..O2ffffffffs ",
" ffffffffffpfffffffffffs ",
" ffffffffffffffffffffffs ",
" ffffffffffffffffffffffs ",
" ffffffffffffffffffffffs ",
" ffffffffffffffffffffffs ",
" ffffffffffffffffffffffs ",
" ffffffffffffffffffffffs ",
" ffffffffffffffffffffffs ",
" ffffffffffffffffffffffs ",
" ffffffffffffffffffffffs ",
" ffffffffffffffffffffffs ",
" ffffffffffffffffffffffs ",
" ffffffffffffffffffffffs ",
" ffffffffffffffffffffffs ",
" ffffffffffffffffffffffs ",
" ssssssssssssssssssssssa ",
"                         "
};
