/* XPM */
static char *result[] = {
/* columns rows colors chars-per-pixel */
"25 50 22 1 ",
"  c black",
". c #000100",
"X c #010100",
"o c #0C1003",
"O c #182006",
"+ c #182106",
"@ c #486112",
"# c #536F15",
"$ c #6A901B",
"% c #769F1E",
"& c #769F1F",
"* c #76A01E",
"= c #8DBF24",
"- c #8DBF25",
"; c #8EBF25",
": c #99CF28",
"> c #A5DF2B",
", c #A6DF2B",
"< c #B1EF2E",
"1 c #BCFD31",
"2 c #BCFE31",
"3 c #BDFF31",
/* pixels */
"                         ",
" 33333333333333333333332 ",
" 33333333333333333333332 ",
" 33333333333333333333332 ",
" 33333333333333333333332 ",
" 33333333333333333333332 ",
" 33333333333333333333332 ",
" 33333333333333333333332 ",
" 33333333333333333333332 ",
" 33333333333333333333332 ",
" 33333333333333333333332 ",
" 33333333333333333333332 ",
" 33333333333333333333332 ",
" 33333333333333333333332 ",
" 33333333333333333333332 ",
" 33333333333333333333332 ",
" 33333333333333333333332 ",
" 333333333333<-333333332 ",
" 33333333333%O$333333332 ",
" 33333333<#o .*333333332 ",
" 333333333&  X;333333332 ",
" 3333333333  X;333333332 ",
" 3333333333  X:333333332 ",
" 3333333333  X>333333332 ",
" 3333333333  X>333333332 ",
" 333333333<  X3333333332 ",
" 333333333>  X3333333332 ",
" 333333333:  X3333333332 ",
" 333333333=  X3333333332 ",
" 333333333=  X3333333332 ",
" 333333333%  .$333333332 ",
" 33333333<+XX+@333333332 ",
" 33333333-;,333333333332 ",
" 33333333333333333333332 ",
" 33333333333333333333332 ",
" 33333333333333333333332 ",
" 33333333333333333333332 ",
" 33333333333333333333332 ",
" 33333333333333333333332 ",
" 33333333333333333333332 ",
" 33333333333333333333332 ",
" 33333333333333333333332 ",
" 33333333333333333333332 ",
" 33333333333333333333332 ",
" 33333333333333333333332 ",
" 33333333333333333333332 ",
" 33333333333333333333332 ",
" 33333333333333333333332 ",
" 22222222222222222222221 ",
"                         "
};
