/* XPM */
static char *result[] = {
/* columns rows colors chars-per-pixel */
"25 50 45 1 ",
"  c black",
". c #000100",
"X c #010100",
"o c #0C1003",
"O c #0D1103",
"+ c #172006",
"@ c #182006",
"# c #192106",
"$ c #233009",
"% c #243009",
"& c #2F400C",
"* c #30410C",
"= c #3B4F0F",
"- c #3B500F",
"; c #3C510F",
": c #465F12",
"> c #466012",
", c #476012",
"< c #536F15",
"1 c #527015",
"2 c #5E7F18",
"3 c #5E8018",
"4 c #5E8019",
"5 c #6A8F1B",
"6 c #6B8F1C",
"7 c #6A901B",
"8 c #6B911C",
"9 c #769F1F",
"0 c #76A01E",
"q c #76A01F",
"w c #81AE21",
"e c #81AF21",
"r c #82AF21",
"t c #82AF22",
"y c #8EBF25",
"u c #99CF28",
"i c #A4DE2B",
"p c #A5DF2B",
"a c #B0EE2E",
"s c #B1EE2E",
"d c #B1EF2E",
"f c #BCFD31",
"g c #BCFE31",
"h c #BDFE31",
"j c #BDFF31",
/* pixels */
"                         ",
" jjjjjjjjjjjjjjjjjjjjjjg ",
" jjjjjjjjjjjjjjjjjjjjjjg ",
" jjjjjjjjjjjjjjjjjjjjjjg ",
" jjjjjjjjjjjjjjjjjjjjjjg ",
" jjjjjjjjjjjjjjjjjjjjjjg ",
" jjjjjjjjjjjjjjjjjjjjjjg ",
" jjjjjjjjjjjjjjjjjjjjjjg ",
" jjjjjjjjjjjjjjjjjjjjjjg ",
" jjjjjjjjjjjjjjjjjjjjjjg ",
" jjjjjjjjjjjjjjjjjjjjjjg ",
" jjjjjjjjjjjjjjjjjjjjjjg ",
" jjjjjjjjjjjjjjjjjjjjjjg ",
" jjjjjjjjjjjjjjjjjjjjjjg ",
" jjjjjjjjjjjjjjjjjjjjjjg ",
" jjjjjjjjjjjjjjjjjjjjjjg ",
" jjjjjjjjjjjjjjjjjjjjjjg ",
" jjjjjjjjjjd7-&&rjjjjjjg ",
" jjjjjjd%3<o     3jjjjjg ",
" jjjjjjjo  @31o  Xyjjjjg ",
" jjjjjjj+ %djj3  .0jjjjg ",
" jjjjjjj$@pjjje  .0jjjjg ",
" jjjjjjj=qjjjj5  Xtjjjjg ",
" jjjjjjj4jjjjg&  Xyjjjjg ",
" jjjjjjjujjjji   #jjjjjg ",
" jjjjjjjjjjjp@  Oujjjjjg ",
" jjjjjjjjjjp@  #ujjjjjjg ",
" jjjjjjjjhwo X*pjgpjjjjg ",
" jjjjjjjs1  o6hga>tjjjjg ",
" jjjjjjj,   12<:o.0jjjjg ",
" jjjjjjj7   .XX. X3jjjjg ",
" jjjjjjjyO;39yy9<*8jjjjg ",
" jjjjjjjjjjjjjjjjjjjjjjg ",
" jjjjjjjjjjjjjjjjjjjjjjg ",
" jjjjjjjjjjjjjjjjjjjjjjg ",
" jjjjjjjjjjjjjjjjjjjjjjg ",
" jjjjjjjjjjjjjjjjjjjjjjg ",
" jjjjjjjjjjjjjjjjjjjjjjg ",
" jjjjjjjjjjjjjjjjjjjjjjg ",
" jjjjjjjjjjjjjjjjjjjjjjg ",
" jjjjjjjjjjjjjjjjjjjjjjg ",
" jjjjjjjjjjjjjjjjjjjjjjg ",
" jjjjjjjjjjjjjjjjjjjjjjg ",
" jjjjjjjjjjjjjjjjjjjjjjg ",
" jjjjjjjjjjjjjjjjjjjjjjg ",
" jjjjjjjjjjjjjjjjjjjjjjg ",
" jjjjjjjjjjjjjjjjjjjjjjg ",
" jjjjjjjjjjjjjjjjjjjjjjg ",
" ggggggggggggggggggggggf ",
"                         "
};
