/* XPM */
static char *result[] = {
/* columns rows colors chars-per-pixel */
"25 50 47 1 ",
"  c black",
". c #000100",
"X c #010100",
"o c #0C1003",
"O c #0C1103",
"+ c #0D1103",
"@ c #172006",
"# c #182106",
"$ c #233009",
"% c #243009",
"& c #243109",
"* c #2F400C",
"= c #30410C",
"- c #3B500F",
"; c #3C510F",
": c #455F12",
"> c #475F12",
", c #475F13",
"< c #476012",
"1 c #486013",
"2 c #536F15",
"3 c #537015",
"4 c #537016",
"5 c #547016",
"6 c #5E8018",
"7 c #6A901C",
"8 c #6A911C",
"9 c #759F1E",
"0 c #769F1E",
"q c #76A01E",
"w c #76A01F",
"e c #80AE21",
"r c #82AF22",
"t c #8DBF24",
"y c #8EBF25",
"u c #99CF27",
"i c #99CF28",
"p c #9ACF28",
"a c #A5DF2A",
"s c #A4DE2B",
"d c #A5DF2B",
"f c #A6DE2B",
"g c #B1EF2E",
"h c #BCFD31",
"j c #BCFE31",
"k c #BDFE31",
"l c #BDFF31",
/* pixels */
"                         ",
" llllllllllllllllllllllj ",
" llllllllllllllllllllllj ",
" llllllllllllllllllllllj ",
" llllllllllllllllllllllj ",
" llllllllllllllllllllllj ",
" llllllllllllllllllllllj ",
" llllllllllllllllllllllj ",
" llllllllllllllllllllllj ",
" llllllllllllllllllllllj ",
" llllllllllllllllllllllj ",
" llllllllllllllllllllllj ",
" llllllllllllllllllllllj ",
" llllllllllllllllllllllj ",
" llllllllllllllllllllllj ",
" llllllllllllllllllllllj ",
" llllllllllllllllllllllj ",
" llllllutga922qdlllllllj ",
" lllllli       Owllllllj ",
" lllllld  %yp-  +glllllj ",
" lllllll ,glljo .qlllllj ",
" lllllll,llllk< Xylllllj ",
" llllllglllllj* Xdlllllj ",
" llllllllllll6  4llllllj ",
" lllllllll-6*  &gllllllj ",
" lllllllllo     #rlllllj ",
" lllllllll3pls$  +gllllj ",
" lllllllfllllls  .qllllj ",
" lllllll>sllllj@ Xyllllj ",
" lllllll*o0jlls  Xdllllj ",
" lllllll$  *0e: X5lllllj ",
" lllllll+;=XX..X1llllllj ",
" lllllllyllgy78ylllllllj ",
" llllllllllllllllllllllj ",
" llllllllllllllllllllllj ",
" llllllllllllllllllllllj ",
" llllllllllllllllllllllj ",
" llllllllllllllllllllllj ",
" llllllllllllllllllllllj ",
" llllllllllllllllllllllj ",
" llllllllllllllllllllllj ",
" llllllllllllllllllllllj ",
" llllllllllllllllllllllj ",
" llllllllllllllllllllllj ",
" llllllllllllllllllllllj ",
" llllllllllllllllllllllj ",
" llllllllllllllllllllllj ",
" llllllllllllllllllllllj ",
" jjjjjjjjjjjjjjjjjjjjjjh ",
"                         "
};
