/* XPM */
static char *result[] = {
/* columns rows colors chars-per-pixel */
"25 50 38 1 ",
"  c black",
". c #000100",
"X c #010100",
"o c #0C1003",
"O c #172006",
"+ c #172106",
"@ c #182006",
"# c #192106",
"$ c #233009",
"% c #253109",
"& c #2F400C",
"* c #30400C",
"= c #30410C",
"- c #3B500F",
"; c #3C510F",
": c #476112",
"> c #536F15",
", c #536F16",
"< c #527015",
"1 c #537015",
"2 c #527115",
"3 c #537115",
"4 c #5E8018",
"5 c #5F8118",
"6 c #6A901B",
"7 c #769F1E",
"8 c #76A01E",
"9 c #76A01F",
"0 c #82AF22",
"q c #82B021",
"w c #8DBF24",
"e c #8DBF25",
"r c #A5DF2B",
"t c #B1EF2E",
"y c #BCFD31",
"u c #BCFE31",
"i c #BDFE31",
"p c #BDFF31",
/* pixels */
"                         ",
" ppppppppppppppppppppppu ",
" ppppppppppppppppppppppu ",
" ppppppppppppppppppppppu ",
" ppppppppppppppppppppppu ",
" ppppppppppppppppppppppu ",
" ppppppppppppppppppppppu ",
" ppppppppppppppppppppppu ",
" ppppppppppppppppppppppu ",
" ppppppppppppppppppppppu ",
" ppppppppppppppppppppppu ",
" ppppppppppppppppppppppu ",
" ppppppppppppppppppppppu ",
" ppppppppppppppppppppppu ",
" ppppppppppppppppppppppu ",
" ppppppppppppppppppppppu ",
" ppppppppppppppppppppppu ",
" pppppppppr44446pppppppu ",
" pppppppppq    %pppppppu ",
" ppppppppp4  @ =pppppppu ",
" ppppppppp@ ,& ;pppppppu ",
" pppppppp7 @r& :pppppppu ",
" pppppppt@ 9p& 4pppppppu ",
" ppppppp< @pp$ 4pr4ppppu ",
" ppppppw  1wwo &>o2ppppu ",
" pppppp$         .4ppppu ",
" ppppppOOOOO+  *-#6ppppu ",
" pppppppppppw .8prqppppu ",
" pppppppppppw .6pppppppu ",
" ppppppppppp7  <pppppppu ",
" ppppppppppp4  &ippppppu ",
" ppppppppppp@  X3ppppppu ",
" pppppppppp0=::15epppppu ",
" ppppppppppppppppppppppu ",
" ppppppppppppppppppppppu ",
" ppppppppppppppppppppppu ",
" ppppppppppppppppppppppu ",
" ppppppppppppppppppppppu ",
" ppppppppppppppppppppppu ",
" ppppppppppppppppppppppu ",
" ppppppppppppppppppppppu ",
" ppppppppppppppppppppppu ",
" ppppppppppppppppppppppu ",
" ppppppppppppppppppppppu ",
" ppppppppppppppppppppppu ",
" ppppppppppppppppppppppu ",
" ppppppppppppppppppppppu ",
" ppppppppppppppppppppppu ",
" uuuuuuuuuuuuuuuuuuuuuuy ",
"                         "
};
