/* XPM */
static char *_e2915e470b34c0adba08d98f6a5c05aOFTbbUjtv6hnBwGb[] = {
/* columns rows colors chars-per-pixel */
"25 50 36 1 ",
"  c black",
". c #010100",
"X c #0C1003",
"o c #172006",
"O c #182006",
"+ c #192206",
"@ c #233009",
"# c #253109",
"$ c #2F400C",
"% c #30410C",
"& c #3B500F",
"* c #465E12",
"= c #476012",
"- c #486112",
"; c #536F16",
": c #527015",
"> c #537015",
", c #5F8118",
"< c #6A8F1C",
"1 c #6A901B",
"2 c #759F1E",
"3 c #769F1F",
"4 c #76A01E",
"5 c #76A01F",
"6 c #77A11F",
"7 c #81AF21",
"8 c #82B022",
"9 c #8CBE24",
"0 c #8EBF25",
"q c #99CF27",
"w c #99CE28",
"e c #A4DD2B",
"r c #A5DF2B",
"t c #B1EF2E",
"y c #BCFD31",
"u c #BDFF31",
/* pixels */
"                         ",
" uuuuuuuuuuuuuuuuuuuuuuu ",
" uuuuuuuuuuuuuuuuuuuuuuy ",
" uuuuuuuuuuuuuuuuuuuuuuy ",
" uuuuuuuuuuuuuuuuuuuuuuy ",
" uuuuuuuuuuuuuuuuuuuuuuy ",
" uuuuuuuuuuuuuuuuuuuuuuu ",
" uuuuuuuuuuuuuuuuuuuuuuu ",
" uuuuuuuuuuuuuuuuuuuuuuy ",
" uuuuuuuuuuuuuuuuuuuuuuy ",
" uuuuuuuuuuuuuuuuuuuuuuy ",
" uuuuuuuuuuuuuuuuuuuuuuy ",
" uuuuuuuuuuuuuuuuuuuuuuy ",
" uuuuuuuuuuuuuuuuuuuuuuy ",
" uuuuuuuuuuuuuuuuuuuuuuu ",
" uuuuuuuuuuuuuuuuuuuuuuu ",
" uuuuuuuuuuuuuuuuuuuuuuy ",
" uuuuuuu9weuutrq7tuuuuuy ",
" uuuuuuu@        tuuuuuy ",
" uuuuuuu% &22;   uuuuuuy ",
" uuuuuuu% <yuuqX+uuuuuuu ",
" uuuuuuu% :yuuu7%uuuuuuu ",
" uuuuuuu$ *yuuuu7uuuuuuu ",
" uuuuuuu$ *9=$&5ruuuuuuu ",
" uuuuuuuo X X;@ +tuuuuuy ",
" uuuuuuu3o +eu7  <uuuuuy ",
" uuuuuuuue2ruu0  :uuuuuy ",
" uuuuuutyuuuuu0  -uuuuuy ",
" uuuuuu,  +@0t8  ,uuuuuy ",
" uuuuuu;   5uu*  8uuuuuy ",
" uuuuuu0   7ur  +uuuuuuu ",
" uuuuuuu<  O2o #ruuuuuuu ",
" uuuuuuuur;$%-5uuuuuuuuy ",
" uuuuuuuuuuuuuuuuuuuuuuy ",
" uuuuuuuuuuuuuuuuuuuuuuy ",
" uuuuuuuuuuuuuuuuuuuuuuy ",
" uuuuuuuuuuuuuuuuuuuuuuy ",
" uuuuuuuuuuuuuuuuuuuuuuy ",
" uuuuuuuuuuuuuuuuuuuuuuy ",
" uuuuuuuuuuuuuuuuuuuuuuy ",
" uuuuuuuuuuuuuuuuuuuuuuy ",
" uuuuuuuuuuuuuuuuuuuuuuy ",
" uuuuuuuuuuuuuuuuuuuuuuy ",
" uuuuuuuuuuuuuuuuuuuuuuy ",
" uuuuuuuuuuuuuuuuuuuuuuy ",
" uuuuuuuuuuuuuuuuuuuuuuy ",
" uuuuuuuuuuuuuuuuuuuuuuu ",
" uuuuuuuuuuuuuuuuuuuuuuu ",
" uuuuuuyuuyuuyuuyyuuyuuy ",
"                         "
};
