/* XPM */
static char *c33cc1bba2b145d9bd3f4758111010c9FOWBw4NmHwLpmsnL[] = {
/* columns rows colors chars-per-pixel */
"25 50 30 1 ",
"  c black",
". c #010100",
"X c #0C1003",
"o c #0D1103",
"O c #182006",
"+ c #182106",
"@ c #253109",
"# c #2F410C",
"$ c #30410C",
"% c #3B500F",
"& c #3C510F",
"* c #476012",
"= c #536F15",
"- c #5F7F19",
"; c #5E8018",
": c #5F8019",
"> c #608019",
", c #6A8F1C",
"< c #769F1F",
"1 c #76A01E",
"2 c #77A11F",
"3 c #82AF22",
"4 c #82B021",
"5 c #8EBF25",
"6 c #99CF28",
"7 c #A5DF2B",
"8 c #B0EE2E",
"9 c #B1EF2E",
"0 c #BCFD31",
"q c #BDFF31",
/* pixels */
"                         ",
" qqqqqqqqqqqqqqqqqqqqqqq ",
" qqqqqqqqqqqqqqqqqqqqqq0 ",
" qqqqqqqqqqqqqqqqqqqqqq0 ",
" qqqqqqqqqqqqqqqqqqqqqq0 ",
" qqqqqqqqqqqqqqqqqqqqqq0 ",
" qqqqqqqqqqqqqqqqqqqqqqq ",
" qqqqqqqqqqqqqqqqqqqqqqq ",
" qqqqqqqqqqqqqqqqqqqqqq0 ",
" qqqqqqqqqqqqqqqqqqqqqq0 ",
" qqqqqqqqqqqqqqqqqqqqqq0 ",
" qqqqqqqqqqqqqqqqqqqqqq0 ",
" qqqqqqqqqqqqqqqqqqqqqq0 ",
" qqqqqqqqqqqqqqqqqqqqqq0 ",
" qqqqqqqqqqqqqqqqqqqqqqq ",
" qqqqqqqqqqqqqqqqqqqqqqq ",
" qqqqqqqqqqqqqqqqqqqqqq0 ",
" qqqqqqqqqqqq9>&qqqqqqq0 ",
" qqqqqqqqqq9>o  qqqqqqq0 ",
" qqqqqqqqq6+    7qqqqqq0 ",
" qqqqqqqq7o  o@ 7qqqqqq0 ",
" qqqqqqqq+  =9q76qqqqqq0 ",
" qqqqqqq<  -qqqqqqqqqqq0 ",
" qqqqqqq$ +qqqqqqqqqqqqq ",
" qqqqqq7  2q<%#=7qqqqqq0 ",
" qqqqqq4  6*    O7qqqqq0 ",
" qqqqqq>  -O56o  #qqqqq0 ",
" qqqqqq> OO*qq-  oqqqqq0 ",
" qqqqqq:   3qq7   7qqqq0 ",
" qqqqqq4   2qqq   qqqqq0 ",
" qqqqqq9o  -qq6  @qqqqqq ",
" qqqqqqq,  X8q=  2qqqqqq ",
" qqqqqqqq>  +=  -qqqqqq0 ",
" qqqqqqqqq<$+o#2qqqqqqq0 ",
" qqqqqqqqqqqqqqqqqqqqqq0 ",
" qqqqqqqqqqqqqqqqqqqqqqq ",
" qqqqqqqqqqqqqqqqqqqqqq0 ",
" qqqqqqqqqqqqqqqqqqqqqq0 ",
" qqqqqqqqqqqqqqqqqqqqqq0 ",
" qqqqqqqqqqqqqqqqqqqqqq0 ",
" qqqqqqqqqqqqqqqqqqqqqq0 ",
" qqqqqqqqqqqqqqqqqqqqqq0 ",
" qqqqqqqqqqqqqqqqqqqqqq0 ",
" qqqqqqqqqqqqqqqqqqqqqq0 ",
" qqqqqqqqqqqqqqqqqqqqqq0 ",
" qqqqqqqqqqqqqqqqqqqqqq0 ",
" qqqqqqqqqqqqqqqqqqqqqqq ",
" qqqqqqqqqqqqqqqqqqqqqqq ",
" qqqqqq0qq0qq0qq00qq0qq0 ",
"                         "
};
