/* XPM */
static char *_eeec43dd7b74cd99555fbe7854e3daeAFaaXvyhru4gWcb6[] = {
/* columns rows colors chars-per-pixel */
"25 50 24 1 ",
"  c black",
". c #0C1003",
"X c #0D1103",
"o c #182006",
"O c #253109",
"+ c #2F410C",
"@ c #3B4F0F",
"# c #475F12",
"$ c #476112",
"% c #486112",
"& c #536F15",
"* c #5E8018",
"= c #759F1E",
"- c #769F1F",
"; c #76A01F",
": c #81AF21",
"> c #8EBF25",
", c #99CF28",
"< c #A5DF2A",
"1 c #A5DE2B",
"2 c #A5DF2B",
"3 c #B1EF2E",
"4 c #BCFD31",
"5 c #BDFF31",
/* pixels */
"                         ",
" 55555555555555555555555 ",
" 55555555555555555555554 ",
" 55555555555555555555554 ",
" 55555555555555555555554 ",
" 55555555555555555555554 ",
" 55555555555555555555555 ",
" 55555555555555555555555 ",
" 55555555555555555555554 ",
" 55555555555555555555554 ",
" 55555555555555555555554 ",
" 55555555555555555555554 ",
" 55555555555555555555554 ",
" 55555555555555555555554 ",
" 55555555555555555555555 ",
" 55555555555555555555555 ",
" 55555555555555555555554 ",
" 5555555555555511:=55554 ",
" 555555> .oo.     $55554 ",
" 5555553  .&=>=   155554 ",
" 5555555o.,555=  $455554 ",
" 5555555+:5555o  1445554 ",
" 5555555:5555>  %4445554 ",
" 555555555555@  ,5445554 ",
" 555555555551  O55555554 ",
" 55555555555#  ;55555554 ",
" 55555555553. .555555554 ",
" 5555555555;  %555555554 ",
" 5555555555+  >555555554 ",
" 5555555551  .5555555554 ",
" 555555555%  +5555555555 ",
" 55555555*   .5555555555 ",
" 5555553;*=--;1555555554 ",
" 55555555555555555555554 ",
" 55555555555555555555554 ",
" 55555555555555555555554 ",
" 55555555555555555555554 ",
" 55555555555555555555554 ",
" 55555555555555555555554 ",
" 55555555555555555555554 ",
" 55555555555555555555554 ",
" 55555555555555555555554 ",
" 55555555555555555555554 ",
" 55555555555555555555554 ",
" 55555555555555555555554 ",
" 55555555555555555555554 ",
" 55555555555555555555555 ",
" 55555555555555555555555 ",
" 55555555545545544554554 ",
"                         "
};
