/* XPM */
static char *e41fd475a0824291f7b80963b336ea4boXNcme5AwNKhIPHN[] = {
/* columns rows colors chars-per-pixel */
"25 50 35 1 ",
"  c black",
". c #010100",
"X c #0C1003",
"o c #0D1103",
"O c #172006",
"+ c #192106",
"@ c #233009",
"# c #243109",
"$ c #2F400C",
"% c #3B4F0F",
"& c #3B500F",
"* c #475F12",
"= c #475F13",
"- c #476112",
"; c #486112",
": c #536F15",
"> c #537115",
", c #5F7F19",
"< c #5F8019",
"1 c #6A8F1C",
"2 c #6A901B",
"3 c #6A901C",
"4 c #6B911C",
"5 c #759E1E",
"6 c #76A01E",
"7 c #82AF22",
"8 c #8CBE24",
"9 c #8DBF24",
"0 c #99CF27",
"q c #99CF28",
"w c #A4DE2A",
"e c #A5DF2B",
"r c #B1EF2E",
"t c #BCFD31",
"y c #BDFF31",
/* pixels */
"                         ",
" yyyyyyyyyyyyyyyyyyyyyyy ",
" yyyyyyyyyyyyyyyyyyyyyyt ",
" yyyyyyyyyyyyyyyyyyyyyyt ",
" yyyyyyyyyyyyyyyyyyyyyyt ",
" yyyyyyyyyyyyyyyyyyyyyyt ",
" yyyyyyyyyyyyyyyyyyyyyyy ",
" yyyyyyyyyyyyyyyyyyyyyyy ",
" yyyyyyyyyyyyyyyyyyyyyyt ",
" yyyyyyyyyyyyyyyyyyyyyyt ",
" yyyyyyyyyyyyyyyyyyyyyyt ",
" yyyyyyyyyyyyyyyyyyyyyyt ",
" yyyyyyyyyyyyyyyyyyyyyyt ",
" yyyyyyyyyyyyyyyyyyyyyyt ",
" yyyyyyyyyyyyyyyyyyyyyyy ",
" yyyyyyyyyyyyyyyyyyyyyyy ",
" yyyyyyyyyyyyyyyyyyyyyyt ",
" yyyyyyyyyy02;%%5yyyyyyt ",
" yyyyyyyye$ X:1O #ryyyyt ",
" yyyyyyyy#  qyy8  -yyyyt ",
" yyyyyyy7  ,ttytX Xyyyyt ",
" yyyyyyy*  ettye  +yyyyy ",
" yyytttt$  ryty4  <yyyyy ",
" yyytttt1  2yy0o -yyyyyy ",
" yyyyyyyr%  $@  ,yyyyyyt ",
" yyyyyyyy9+ XO  >yyyyyyt ",
" yyyyyyy<  =ry1  <yyyyyt ",
" yyyyyye  +yyyy# Xryyyyt ",
" yyyyyy5  6yyyy%  0yyyyt ",
" yyyyyy<  eyyyy+  8tyyyt ",
" yyyyyy2  5yyt5  +ttyyyy ",
" yyyyyyrX O5w,X  ,ytyyyy ",
" yyyyyyy7+      ,yyyyyyt ",
" yyyyyyyyy7<-;4eyyyyyyyt ",
" yyyyyyyyyyyyyyyyyyyyyyt ",
" yyyyyyyyyyyyyyyyyyyyyyy ",
" yyyyyyyyyyyyyyyyyyyyyyt ",
" yyyyyyyyyyyyyyyyyyyyyyt ",
" yyyyyyyyyyyyyyyyyyyyyyt ",
" yyyyyyyyyyyyyyyyyyyyyyt ",
" yyyyyyyyyyyyyyyyyyyyyyt ",
" yyyyyyyyyyyyyyyyyyyyyyt ",
" yyyyyyyyyyyyyyyyyyyyyyt ",
" yyyyyyyyyyyyyyyyyyyyyyt ",
" yyyyyyyyyyyyyyyyyyyyyyt ",
" yyyyyyyyyyyyyyyyyyyyyyt ",
" yyyyyyyyyyyyyyyyyyyyyyy ",
" yyyyyyyyyyyyyyyyyyyyyyy ",
" yyytyytyytyytyyttyytyyt ",
"                         "
};
