/* XPM */
static char *result[] = {
/* columns rows colors chars-per-pixel */
"25 50 45 1 ",
"  c black",
". c #000100",
"X c #010100",
"o c #0C1003",
"O c #0D1103",
"+ c #182006",
"@ c #192106",
"# c #192206",
"$ c #253109",
"% c #2F400C",
"& c #3B4F0F",
"* c #3C510F",
"= c #475F12",
"- c #476012",
"; c #476112",
": c #486013",
"> c #526F15",
", c #527015",
"< c #527115",
"1 c #537115",
"2 c #5F7F19",
"3 c #5E8018",
"4 c #5F8019",
"5 c #608019",
"6 c #6B8F1C",
"7 c #6A901B",
"8 c #6A901C",
"9 c #759E1F",
"0 c #769F1F",
"q c #76A01E",
"w c #80AE21",
"e c #82AF22",
"r c #82B022",
"t c #8CBE24",
"y c #8EBF25",
"u c #99CF27",
"i c #9ACF28",
"p c #A4DD2B",
"a c #A4DE2B",
"s c #A5DF2B",
"d c #B1EE2E",
"f c #B1EF2E",
"g c #BCFD31",
"h c #BCFE31",
"j c #BDFF31",
/* pixels */
"                         ",
" jjjjjjjjjjjjjjjjjjjjjjh ",
" jjjjjjjjjjjjjjjjjjjjjjh ",
" jjjjjjjjjjjjjjjjjjjjjjh ",
" jjjjjjjjjjjjjjjjjjjjjjh ",
" jjjjjjjjjjjjjjjjjjjjjjh ",
" jjjjjjjjjjjjjjjjjjjjjjh ",
" jjjjjjjjjjjjjjjjjjjjjjh ",
" jjjjjjjjjjjjjjjjjjjjjjh ",
" jjjjjjjjjjjjjjjjjjjjjjh ",
" jjjjjjjjjjjjjjjjjjjjjjh ",
" jjjjjjjjjjjjjjjjjjjjjjh ",
" jjjjjjjjjjjjjjjjjjjjjjh ",
" jjjjjjjjjjjjjjjjjjjjjjh ",
" jjjjjjjjjjjjjjjjjjjjjjh ",
" jjjjjjjjjjjjjjjjjjjjjjh ",
" jjjjjjjjjjjjjjjjjjjjjjh ",
" jjjjjjjjjfuufjjjjjjjjjh ",
" jjjjjjjj7o   -sjjjjjjjh ",
" jjjjjjj3   -= Oijjjjjjh ",
" jjjjjjs   2jh% @jjjjjjh ",
" jjjjjj=  +jjj3 Xyjjjjjh ",
" jjjjjj%  ,jjj3  <jjjjjh ",
" jjjjjj&  3jjh&  ;jjjjjh ",
" jjjjjj7  ,jja   ;jjjjjh ",
" jjjjjjfo oqt+o  1jjjjjh ",
" jjjjjjjeX  .@9 Xrjjjjjh ",
" jjjjjjjje*;8d> @fjjjjjh ",
" jjjjjjjjjjjjp X5jjjjjjh ",
" jjjjjjjjjjja+ $jjjjjjjh ",
" jjjjjjjs7w3o #sjjjjjjjh ",
" jjjjjjjj0  .:fjjjjjjjjh ",
" jjjjjjjjj4O6jjjjjjjjjjh ",
" jjjjjjjjjjfjjjjjjjjjjjh ",
" jjjjjjjjjjjjjjjjjjjjjjh ",
" jjjjjjjjjjjjjjjjjjjjjjh ",
" jjjjjjjjjjjjjjjjjjjjjjh ",
" jjjjjjjjjjjjjjjjjjjjjjh ",
" jjjjjjjjjjjjjjjjjjjjjjh ",
" jjjjjjjjjjjjjjjjjjjjjjh ",
" jjjjjjjjjjjjjjjjjjjjjjh ",
" jjjjjjjjjjjjjjjjjjjjjjh ",
" jjjjjjjjjjjjjjjjjjjjjjh ",
" jjjjjjjjjjjjjjjjjjjjjjh ",
" jjjjjjjjjjjjjjjjjjjjjjh ",
" jjjjjjjjjjjjjjjjjjjjjjh ",
" jjjjjjjjjjjjjjjjjjjjjjh ",
" jjjjjjjjjjjjjjjjjjjjjjh ",
" hhhhhhhhhhhhhhhhhhhhhhg ",
"                         "
};
