/* XPM */
static char *result[] = {
/* columns rows colors chars-per-pixel */
"100 50 221 2 ",
"   c #000000",
".  c #0F0606",
"X  c #100606",
"o  c #1E0C0B",
"O  c #2D1311",
"+  c #3C1917",
"@  c #4B1F1D",
"#  c #5A2522",
"$  c #692B28",
"%  c #78312E",
"&  c #873834",
"*  c #973E39",
"=  c #A5443F",
"-  c #EE7A2F",
";  c #B44A45",
":  c #C4504B",
">  c #D35750",
",  c #F05B4B",
"<  c #E25D56",
"1  c #EA7349",
"2  c #F1635C",
"3  c #E47859",
"4  c #E45976",
"5  c #DC6766",
"6  c #DC726E",
"7  c #E46F72",
"8  c #74B97B",
"9  c #6FCE6E",
"0  c #79C76A",
"q  c #7ACD6D",
"w  c #78D369",
"e  c #6CCD75",
"r  c #68C67A",
"t  c #64CB7D",
"y  c #6DCC7B",
"u  c #73CD73",
"i  c #78CA79",
"p  c #69D278",
"a  c #76D173",
"s  c #BCBC2A",
"d  c #BCB938",
"f  c #EB9111",
"g  c #D8B416",
"h  c #F7A70B",
"j  c #F4BA0E",
"k  c #EAA915",
"l  c #F2AD12",
"z  c #EBB817",
"x  c #E5BD1A",
"c  c #DA9423",
"v  c #D88832",
"b  c #DD973B",
"n  c #E78529",
"m  c #EA9829",
"M  c #EB8E31",
"N  c #D9A627",
"B  c #D6B927",
"V  c #CEB230",
"C  c #D5B633",
"Z  c #E6A827",
"A  c #E4B626",
"S  c #E2A831",
"D  c #BAD82C",
"F  c #BBDA2C",
"G  c #BAC639",
"H  c #ACD63D",
"J  c #A9D93C",
"K  c #B4D533",
"L  c #B4D933",
"P  c #BCD932",
"I  c #B3D63C",
"U  c #BAD538",
"Y  c #CDCA18",
"T  c #DBC819",
"R  c #CBDA1A",
"E  c #CCDD1B",
"W  c #DBD516",
"Q  c #D5DB15",
"!  c #D4D51B",
"~  c #DBD31B",
"^  c #D3DB1C",
"/  c #EFC50D",
"(  c #ECCB12",
")  c #E5C419",
"_  c #EBC31D",
"`  c #E5CB1A",
"'  c #E8C918",
"]  c #E4D313",
"[  c #CBC92A",
"{  c #D7C826",
"}  c #C3DC24",
"|  c #CCDB24",
" . c #C7D729",
".. c #D8D426",
"X. c #D2DA22",
"o. c #C4CA35",
"O. c #D9C738",
"+. c #C4D532",
"@. c #E4C621",
"#. c #A89E56",
"$. c #B7BA45",
"%. c #AAAD50",
"&. c #B49071",
"*. c #92AB73",
"=. c #A7AB6B",
"-. c #DD8948",
";. c #D1934E",
":. c #DC8558",
">. c #E6874D",
",. c #CBA949",
"<. c #CE8D6B",
"1. c #9FCC48",
"2. c #9DD446",
"3. c #96D44E",
"4. c #9BD44B",
"5. c #8BCB5B",
"6. c #97CB57",
"7. c #8AD358",
"8. c #8BD15C",
"9. c #94D451",
"0. c #9AD453",
"q. c #96D45B",
"w. c #A7CC44",
"e. c #B6C842",
"r. c #A4D544",
"t. c #ABD543",
"y. c #A3D54C",
"u. c #A9D748",
"i. c #B4D744",
"p. c #A3CA51",
"a. c #A6D456",
"s. c #B3D552",
"d. c #87C867",
"f. c #85D263",
"g. c #8CD364",
"h. c #83D26C",
"j. c #95D364",
"k. c #84CE74",
"l. c #A4D263",
"z. c #C5D745",
"x. c #0D75C2",
"c. c #0E7BC3",
"v. c #107FC3",
"b. c #E55785",
"n. c #E74D94",
"m. c #D96F8A",
"M. c #E4618E",
"N. c #DC58A9",
"B. c #DE4EB6",
"V. c #D665A9",
"C. c #D34CCF",
"Z. c #CD47E7",
"A. c #3EBA9F",
"S. c #1D9ABD",
"D. c #2698B5",
"F. c #1EA7BE",
"G. c #33AEAB",
"H. c #3CBBA5",
"J. c #34B5AC",
"K. c #39B7A8",
"L. c #36BAAD",
"P. c #3BBAAA",
"I. c #2BADB5",
"U. c #25AABA",
"Y. c #24ACBC",
"T. c #2DB2B4",
"R. c #2BB2BA",
"E. c #28B2BC",
"W. c #32B5B2",
"Q. c #35B9B2",
"!. c #59BA89",
"~. c #43AC9B",
"^. c #45BD9C",
"/. c #48B898",
"(. c #4BBE9B",
"). c #54BB96",
"_. c #6CB28B",
"`. c #72BA85",
"'. c #43BCA3",
"]. c #48BCA4",
"[. c #54BFAC",
"{. c #3CC3A5",
"}. c #35C1B1",
"|. c #5CC585",
" X c #5BC887",
".X c #55C48D",
"XX c #5BC58C",
"oX c #4CC295",
"OX c #46C79B",
"+X c #4BC19C",
"@X c #53C393",
"#X c #58C897",
"$X c #53D293",
"%X c #64CA84",
"&X c #67C986",
"*X c #6AC58C",
"=X c #43C3A4",
"-X c #5AC4A6",
";X c #0F82C4",
":X c #0C86CA",
">X c #1085C5",
",X c #118CC5",
"<X c #128BC8",
"1X c #1293C6",
"2X c #159BC6",
"3X c #1A9FC3",
"4X c #1295CA",
"5X c #129BCB",
"6X c #109DD0",
"7X c #16A2C6",
"8X c #1AA4C4",
"9X c #1DA9C3",
"0X c #15A2CA",
"qX c #19A7C8",
"wX c #15A3D5",
"eX c #19A8D7",
"rX c #22ABC1",
"tX c #24ADCA",
"yX c #27B4C6",
"uX c #2DB0D0",
"iX c #18A2E0",
/* pixels */
"0X5X0X0X0X5X4X5X0X9XOX,.C.m.A 3 3 n.&.].uX*.M { X.E | +.I t.u.0.q.8.0.].wXwXwX`.` 0.&X%X(.=X=XJ.Y.7X8X^.I.4X>Xc.x.x.x.x.x.x.c.I.T.5X5XI.rXR.A.d 3.A.F.E.L.L.U.R.rX0X0X5X6XrXXXXX].W.'.XX%Xe p 9 9 7.f g ",
"qX5X6X0X5X6X4X5X0XrX%X;.Z.;.>.>.7 b.*.yXi C A +.I i.I J t.u.y.t.u.P i eXwXeX8 ] 5.u %X@X#X@XK.R.0XF.^.U.2X,Xc.c.x.x.x.x.x.x.v.G.I.6X0XU.rXP.t g w J.F.OX@XK.rXE.rXrX0X0X6XwX'.%X).W.]..Xe e 9 9 w 2.f [ ",
"6X5X5X0X5X5X4X5X0XR.f.m.C.>., m 4 M.`.OXS m @.o.e.u.y.0.q.q.q.u.P +.yXeXeX`.~ t.a e XX#X*X'.R.8X8X^.F.4X<Xc.x.x.x.x.x.x.x.c.>XK.rX5X8XrXrXP.5.Y t W.H..XXXOXL.W.W.T.9X0X5XwXU.XX@XP.K.).y a w w w G f  .",
"4X5X5X5X5X5X4X2XqXL.1.V.V.- 1 ;.b.7 _.XXb M x z / _ @...+.a.q.+.[ #XeXeX`.] w.q %X#XXX&X(.R.9X8X/.I.4X<Xv.x.x.x.x.x.x.x.x.c.,XQ.qX5X8X8XQ.OXs w.{.W.@X XXX@X@XOX=XL.R.9X0XwXwX'.!.].P.].e 9 w w w g f K ",
"6X4X5X5X5X4X4X2XrX=X$.C.<.m 3 >.n.<.].*XM Z ) x x @.@.' ' ( ] ..k.tXeX)...e.q y XX&X&X@XW.9X5X^.K.4X1X>Xv.x.x.x.x.x.c.x.v.x.S.G.0X0XrXrXJ.!.T e W.OX%X%Xr u y t  X.X^.T.qXwXiXQ..X(.Q.K. Xe e w w g g L ",
"6X4X6X4X4X4X5X0XrX#X;.C.-.M :.3 n.*.}.k.- A ) ) z _ ` ` @.] ] z.#XuX`.{ +.q y XX%X&X&XQ.U.7XG.'.2X4X<Xv.x.x.x.x.x.x.c.x.c.S.S.G.2XqXrXrXT.1.1.P.@Xy u f.u q q q u y t oXP.qXeXuX@X@X'.Q.@X%X Xy w g B H ",
"5X4X4X5X6X4X6XqXR.u <.Z.@.3 ;.M.b.`.{.;.n _ x ) _ _ _ ' _ ` ' h.}.*X/ o.a &X&X&X&X#XL.E.5XJ.].1X4X>Xv.x.x.x.x.x.x.x.x.x.c.;XU.I.5X9XrXY.0 5.^.f.2.3.3.3.9.9.9.5.8.f.q u t '.tXuX].XX].P.(.(.oX.X3.h K r.",
"4X5X6X4X4X<X5X8XW.6.V.M.) 3 ;.4 7 +XXXM Z _ ) ) @._ _ _ _ _ z.&X*Xk { g.i y i a %X].R.0XG.).rX4X<X>Xc.x.x.x.x.x.x.;Xx.x.S.;XU.rX5XrX8Xr 5./.f.3.2.4.3.3.3.3.9.9.3.9.9.q e *X].uX[. X@X X6.XX^.A.5.g J H ",
"4X5X6X4X4X4X0XyX}.$.C.:.M :.:.n.&.=X*.- @.@.) ) _ _ _ A z { &Xi k l a.k.y a h.y #X=XqXP.).8X4X<X;Xc.x.x.x.x.x.x.c.c.c.c.;XS.F.F.0X8XR.r.XX|.f.9.3.4.4.9.9.7.9.9.9.3.9.9.f.u ).Q.-Xy 9 D j G t H.w.P 2.o.",
"4X4X5X6X5X5X0XE.$X;.C.S >.;.4 M.`.=X,.m @.) ) ' ' ' _ z z e.&XZ f { q.i a h.a &X&XyXJ.).rX4X<X>Xv.x.x.x.x.x.x.c.;Xx.c.x.;X:XT.7X0X0Xy r.(.u 8.4.4.4.3.3.9.9.9.3.9.3.9.3.3.7.e ^.[.a. .g g / 8 !.o.1.y.T ",
"4X6X5X4X4X5XqXR.p <.N.W 3 -.b.7 ].i M A ` ) ' ` ' ' ) ) z e.e.j .. .j.a g.w &Xh.P.L..XU.2X<X>X>Xx.x.x.x.x.c.c.v.x.c.;XS.;X1XT.0X8XG.G |.%Xf.3.4.3.3.3.4.4.3.2.2.2.3.3.9.3.4.3.e =XG ..Z k B ).d.+.4.Y T ",
"4X6X5X5X5X6XrX{.4.N.6 @.3 :.n.&.=X$.M @.) ) ' ` ' ) ) x A G `  .+.s.k.g.h.&Xg.oXL.XXY.2X<X<X>Xx.x.x.c.x.x.c.v.;Xc.;X;X,Xc.S.U.0X0X_.%.$X8.2.2.2.2.4.2.2.2.4.4.2.y.2.9.9.3.4.H 2.y 6.{ O.x 5.oX1.3. .] 2.",
"4X6X6X5X5X6XE.{.G B.,.V -.5 b.=.$XS m ) x ) ) ` ) ) ) z o.z.o.i.s.k.g.g.&X0.i W.).T.8X4X<X>Xc.x.x.c.x.x.c.c.v.c.;X,X,X>X;XU.U.5X3X#.*.f.2.2.2.r.2.4.4.4.4.4.4.2.2.2.3.9.9.y.r.2.q q B ..0..Xq g.6.~  .2.",
"4X4X5X5X0X0XT.t <.N.J b b 4 M.&X5.M A _ x ) ) ) ) ) x C 6.N ..s.k.g.g.&Xu.g.{.$XI.Y.4X<X<X>Xx.x.x.x.x.x.v.v.c.;X;X;X,X;X;XI.8X6X!.e.q.3.r.J t.2.4.3.4.9.3.4.3.3.3.2.2.3.3.4.r.r.f.&Xt.w.XX%Xq 5.[ ! 2.8.",
"2 2 2 2 2 2 2 2 2 2 2 2 2 2 2 2 2 2 2 2 2 2 2 2 2 2 2 2 2 2 2 2 2 2 2 2 2 2 2 2 2 2 2 2 2 2 2 2 2 2 2 2 2 2 2 2 2 2 2 2 2 2 2 2 2 2 2 2 2 2 2 2 2 2 2 2 2 2 2 2 2 2 2 2 2 2 2 2 2 2 2 2 2 2 2 2 2 2 2 2 ",
"2 2 2 2 2 2 2 2 2 2 2 2 2 2 2 2 2 2 2 2 2 2 2 2 2 2 2 2 2 2 2 2 2 2 2 2 2 2 2 2 2 2 2 2 2 2 2 2 2 2 2 2 2 2 2 2 2 2 2 2 2 2 2 2 2 2 2 2 2 2 2 2 2 2 2 2 2 2 2 2 2 2 2 2 2 2 2 2 2 2 2 2 2 2 2 2 2 2 2 2 ",
"2 2 2 2 2 2 2 2 2 2 2 2 2 2 2 2 2 2 2 2 2 2 2 2 2 2 2 2 2 2 2 2 2 2 2 2 2 2 2 2 2 2 2 2 2 2 2 2 2 2 2 2 2 2 2 2 2 2 2 2 2 2 2 2 2 2 2 2 2 2 2 2 2 2 2 2 2 2 2 2 2 2 2 2 2 2 2 2 2 2 2 2 2 2 2 2 2 2 2 2 ",
"2 2 2 2 2 2 2 2 2 2 2 2 2 2 2 2 2 2 2 2 2 2 2 2 2 2 2 2 2 2 2 2 2 2 2 2 2 2 2 2 2 2 2 2 2 2 2 2 2 2 2 2 2 2 2 2 2 2 2 2 2 2 2 2 2 2 2 2 2 2 2 2 2 2 2 2 2 2 2 2 2 2 2 2 2 2 2 2 2 2 2 2 2 2 2 2 2 2 2 2 ",
"2 2 2 2 2 2 2 2 2 2 2 2 2 2 2 2 2 2 2 2 2 2 2 2 2 2 2 2 2 2 2 2 2 2 2 2 2 2 2 2 2 2 2 2 2 2 2 2 2 2 2 2 2 2 2 2 2 2 2 2 2 2 2 2 2 2 2 2 2 2 2 2 2 2 2 2 2 2 2 2 2 2 2 2 2 2 2 2 2 2 2 2 2 2 2 2 2 2 2 2 ",
"2 2 2 2 2 2 2 2 2 2 2 2 2 2 2 2 2 2 2 2 2 2 2 2 2 2 2 2 2 2 2 2 2 2 2 < & # + @ * > 2 2 2 2 2 2 2 2 2 2 2 2 2 2 2 2 2 2 2 2 2 2 2 2 2 2 2 2 2 2 2 2 2 2 2 2 2 2 2 2 2 2 2 2 2 2 2 2 2 2 2 2 2 2 2 2 2 2 ",
"2 2 2 2 2 2 2 2 2 2 2 2 2 2 2 2 $       $ 2 2 2 2 ; ; ; ; * * < 2 2 & .             % 2 %       o > 2 : % % % % & ; ; ; ; ; ; ; ; 2 2 2 ; + .       X O @ # + * 2 2 2 2 2 2 2 2 2 2 2 2 2 2 2 2 2 2 2 2 ",
"2 2 2 2 2 2 2 2 2 2 2 2 2 2 2 2 <       . < 2 2 >           % 2 2 %       + = * o     % 2 ;     & 2 2 2 +     O         . o .     < 2 %       . % * & o     o > 2 2 2 2 2 2 2 2 2 2 2 2 2 2 2 2 2 2 2 2 ",
"2 2 2 2 2 2 2 2 2 2 2 2 2 2 2 2 2         = 2 2 =           > 2 >       o 2 2 2 >       ; <     * 2 2 2 $   X > O     + < 2 2 &   > <         > 2 2 2 > O   # 2 2 2 2 2 2 2 2 2 2 2 2 2 2 2 2 2 2 2 2 2 ",
"2 2 2 2 2 2 2 2 2 2 2 2 2 2 2 2 <         + 2 2 $           < 2 #       > 2 2 2 2 +     + 2 .   & 2 2 2 +   # 2 #     ; 2 2 2 2 $ 2 <       X 2 2 2 2 2 >   > 2 2 2 2 2 2 2 2 2 2 2 2 2 2 2 2 2 2 2 2 2 ",
"2 2 2 2 2 2 2 2 2 2 2 2 2 2 2 2 >           ; 2 O   #       2 2 .     + 2 2 2 2 2 %       < +   $ 2 2 >     ; 2 %     < 2 % 2 2 > 2 2 +       o * 2 2 2 2 & 2 2 2 2 2 2 2 2 2 2 2 2 2 2 2 2 2 2 2 2 2 2 ",
"2 2 2 2 2 2 2 2 2 2 2 2 2 2 2 2 >       %   + >   # %       2 :       % 2 2 2 2 2 %       : $   @ 2 2 *   . < 2 %   X 2 ; # 2 2 2 2 2 < #         o * 2 2 2 2 2 2 2 2 2 2 2 2 2 2 2 2 2 2 2 2 2 2 2 2 2 ",
"2 2 2 2 2 2 2 2 2 2 2 2 2 2 2 2 >       < .   O   ; %       2 ;       = 2 2 2 2 2 $       ; ;   o 2 2 @   @ 2 2 %   o % X # 2 2 2 2 2 2 2 > # o       o > 2 2 2 2 2 2 2 2 2 2 2 < 2 2 2 2 2 2 2 2 2 2 2 ",
"2 2 2 2 2 2 2 2 2 2 2 2 2 2 2 2 >     o 2 %     o 2 %       2 :       : 2 2 2 2 2 +       < <     < 2 X   * 2 2 %         # 2 2 2 2 > 2 2 2 2 2 ; # o     % 2 2 2 2 2 2 2 2 2 $   % 2 2 2 2 2 2 2 2 2 2 ",
"2 2 2 2 2 2 2 2 2 2 2 2 2 2 2 2 :     o 2 <     $ 2 %       2 <       > 2 2 2 2 <       + 2 2 +   ; ;     > 2 2 %   X > : $ 2 2 2 > & 2 < : * * 2 2 :       = 2 2 2 2 2 2 2 <     $ 2 2 2 2 2 2 2 2 2 2 ",
"2 2 2 2 2 2 2 2 2 2 2 2 2 2 2 2 ;     o 2 2 +   > 2 %       2 2 +     ; 2 2 2 2 *       * 2 2 &   $ #   O 2 2 2 %   o 2 2 : 2 2 2 o % +     o > 2 2 2 +     @ 2 2 2 2 2 2 2 2 : * 2 2 2 2 2 2 2 2 2 2 2 ",
"2 2 2 2 2 2 2 2 2 2 2 2 2 2 2 2 ;     o 2 2 $ O 2 2 #       < 2 > X   $ 2 2 2 < o     + 2 2 2 >   .     $ 2 2 2 %     2 2 2 2 2 #   ; &     O 2 2 2 2 #     O 2 2 2 2 2 2 2 2 2 2 2 2 2 2 2 2 2 2 2 2 2 ",
"2 2 2 2 2 2 2 2 2 2 2 2 2 2 2 2 ;       > 2 : ; 2 2 +       ; 2 2 : .   & 2 < #     o > 2 2 2 2 .       ; 2 2 2 #     & : > * +     : ;       ; 2 2 2 o     @ 2 2 2 2 2 2 2 2 2 > 2 2 2 2 2 2 2 2 2 2 2 ",
"2 2 2 2 2 2 2 2 2 2 2 2 2 2 2 2 &       + 2 2 2 2 >         o > 2 2 > o   X X     + > 2 2 2 2 2 $     . 2 2 2 2 #                   2 2 %       # & +       & 2 2 2 2 2 2 2 2 o   @ 2 2 2 2 2 2 2 2 2 2 ",
"2 2 2 2 2 2 2 2 2 2 2 2 2 2 2 > o     o o * 2 2 2 % $ % % % * ; 2 2 2 2 * + o + * 2 2 2 2 2 2 2 ;   o % 2 2 2 2 $ # $ % & * * * * = 2 2 2 * O           o & 2 2 2 2 2 2 2 2 2 $ X $ 2 2 2 2 2 2 2 2 2 2 ",
"2 2 2 2 2 2 2 2 2 2 2 2 2 2 2 < > 2 2 2 2 2 2 2 2 2 2 2 2 2 2 2 2 2 2 2 2 2 2 2 2 2 2 2 2 2 2 2 2 2 2 2 2 2 2 2 2 2 2 2 2 2 2 2 2 2 2 2 2 2 2 < : : > < 2 2 2 2 2 2 2 2 2 2 2 2 2 2 2 2 2 2 2 2 2 2 2 2 ",
"2 2 2 2 2 2 2 2 2 2 2 2 2 2 2 2 2 2 2 2 2 2 2 2 2 2 2 2 2 2 2 2 2 2 2 2 2 2 2 2 2 2 2 2 2 2 2 2 2 2 2 2 2 2 2 2 2 2 2 2 2 2 2 2 2 2 2 2 2 2 2 2 2 2 2 2 2 2 2 2 2 2 2 2 2 2 2 2 2 2 2 2 2 2 2 2 2 2 2 2 ",
"2 2 2 2 2 2 2 2 2 2 2 2 2 2 2 2 2 2 2 2 2 2 2 2 2 2 2 2 2 2 2 2 2 2 2 2 2 2 2 2 2 2 2 2 2 2 2 2 2 2 2 2 2 2 2 2 2 2 2 2 2 2 2 2 2 2 2 2 2 2 2 2 2 2 2 2 2 2 2 2 2 2 2 2 2 2 2 2 2 2 2 2 2 2 2 2 2 2 2 2 ",
"2 2 2 2 2 2 2 2 2 2 2 2 2 2 2 2 2 2 2 2 2 2 2 2 2 2 2 2 2 2 2 2 2 2 2 2 2 2 2 2 2 2 2 2 2 2 2 2 2 2 2 2 2 2 2 2 2 2 2 2 2 2 2 2 2 2 2 2 2 2 2 2 2 2 2 2 2 2 2 2 2 2 2 2 2 2 2 2 2 2 2 2 2 2 2 2 2 2 2 2 ",
"2 2 2 2 2 2 2 2 2 2 2 2 2 2 2 2 2 2 2 2 2 2 2 2 2 2 2 2 2 2 2 2 2 2 2 2 2 2 2 2 2 2 2 2 2 2 < 2 2 2 2 2 2 2 2 < 2 2 2 2 2 2 2 2 2 2 2 2 2 2 2 2 2 2 2 2 2 2 2 2 2 2 2 2 2 2 2 2 2 2 2 2 2 2 2 2 2 2 2 2 ",
"7.6 <.p q.b 4 5 ;.g.U U [ ! n v ).W.T.qXF.7X1X,X1X1X,X,X1X1X2XF.F.U.T.T.d.K 5.(..XoXF.7XF.7X1X1X1X;X,X2X1X,X/.F.7X7X2X).|.K [ U ( +.L E ..X.P u.a.g.&X'.yX{.+.T L w 9.{ v N H a.0.0.2.r.u.2.y.y.I F  .X.",
"F M.&.a s.,.-.,.q.i.U { { n v (.Q.T.8XF.8X5X,X1X1X,XS.,X2X2X8XT.T.J.H.w / W 3.r 0 A.2XF.T.S.1X:X;X,X1X2Xc.D.A.2X8X2X2X!. XG V G / ! I } R ! X.+.I y.q.g.&Xh.X. .&X=Xa +.B { u.0.0.4.u.J t.u.r.t.P } | X.",
"{ B.<.&Xa.z.s.q.H P +.[ - #.'.L.E.qXF.7X2X1X2X1X,X,X1X2XF.J..XI.T.J.t } j W 1.5./.F.5X2X6X4X:XS.>X,X2X2Xc.A.G.F.3X2X2Xt  XG V d h W +.K R ^ ^ ^ | U u.a.a.i.i.g.OX}.&Xs.z.i.a.0.0.y.J t.J H H F  . .| | ",
"S C.<.a j.l.g.u.H [ D - #./.K.U.F.I.7X2X1X1X2X1X,X2XS.5XJ.|.A.J.G.K.5.k j ] R .XqX2X2X2X1XS.:X:X>X2X5X,X:Xt F.7X2X2X2Xr .XG c 3.h ( ! I D R E Q X.| P i.a.a.a.g.$X-Xk.l.a.a.y.0.y.r.J J L P +.|  .| | ) ",
">.Z.>.p.h.j.y.P [ V - *.A.A.F.9XG.2X1X1X2X2X1X1X2X2X5XA.9 !.A.H.A.t D j f h 0 F.2X8XF.1X1X:XS.S.,X2X1X:XD.!.0X0X1X2X2X0 .Xd c d.z / ]  .D D E E ^ ^ ^ | P i.i.a.a.j.l.l.l.a.y.y.t.H P L L } | X.X.^ ~ l ",
">.Z.6 g.g.0.i.F V 1 8 L.L.9X8XI.2X1X1X2X1X,X1X2X2X5X!.B 9 A.A.A.t w Y h f %.J.F.7X8X1X1XS.1X2X:X1X2X1X:XA.G.4X2X2X1XS.5. XG c i { j ( ] ! D R R E E ^ ^ ^ P P i.u.u.s.l.a.u.u.t.H L L F F } ..~ ^ ! l z ",
"=.N.m.5.g.u.i.,.;.!.G.G.2X8X9X4X,X<X1X1X1X1X2XF.S.A.g d t .X.Xt w J Y c 0 A.F.5X2X1X1X1X2X7X2X:X1X2X:X,X!.2X2X1X4X1XF.5.oXG c *XG l ( ] W | D R E Q ^ ^ ^ | | +.U i.J i.I J J L L L L F | X...^ Q l l ! ",
"#X*.k.h.w =.;.*.=XL.U.5X8X3X4X:X:X>X1X,X2X7X7XF.A.s G .X/..XoXp 2.2.2.t A.F.S.2X1X,XS.1XF.F.:X1X1X1X;XD.).6X2X4X1X4XU.5.OX$.c ).i j / ( ] W R  .E Q Q Q E ^ X.| P P P P F F F L L L F } E ..^ W l l W } ",
"<.=.*.#.<.6 _.'.W.Y.2X8X2X<X;X;X;X<X,X1X7XF.F.J.1.h 0 A.oXoXoX.X9 9 9 A.S.S.F.1X1X1X,X1X1X1X:XS.2X,X:X/.~.0X2X1X1X5XI.5.OX$.m _.XXx / / ] ] Q R R E E Q Q ^ E E X.} | } F F F F F F } } ^ ~ Q z l ` D R ",
"=.&.&.8 !.W.W.F.5X2X0X1X;X;Xv.;X;X:X2XF.Y.T.T.2.h V A.K.^.oX^.J.H.A.8X0X7X2X1X1X,X,X,X,X,X;X,X2X2X:X1Xr F.2X2X1X2X7XG.5.OXd c -XOXo./ ( ( ( ] ~ ^ Q E E R Q E E E E E } } F } } } F } R W ( z l ` D F R ",
"}.=XH.J.T.U.7X2X2X2X1X;X;Xc.v.:X:XS.F.F.T.Y.A.Y h H A.H.A.oXoXA.J.E.7X7X2X1X4X1X,X,X,X;X;X,X1X7X1X:XG.0 S.1X1X4X3X9X/.5.P.$.V -X=XJ / / ( ( ( ] ] Q W Q Q E E Q E E E E } } } F }  .R ] ' z z ! L L R R "
};
