/* XPM */
static char *_21b4e09fe224d6682ab31b0fe83f595VrARB2kXt6ezdrO5[] = {
/* columns rows colors chars-per-pixel */
"100 100 19 1 ",
"  c #1A1A24",
". c #1B1A25",
"X c #1C1B26",
"o c #1C1C26",
"O c #1D1C27",
"+ c #1F1E29",
"@ c #201F29",
"# c #20202A",
"$ c #22212B",
"% c #22222C",
"& c #23222D",
"* c #24242E",
"= c #25242F",
"- c #262630",
"; c #272631",
": c #282732",
"> c #292833",
", c #2B2A35",
"< c white",
/* pixels */
"<<<<<<<<<<<<<<<<<<<<<<<<<<<<<<<<<<<<<<<<<<<<<<<<<<<<<<<<<<<<<<<<<<<<<<<<<<<<<<<<<<<<<<<<<<<<<<<<<<<<",
"<<<<<<<<<<<<<<<<<<<<<<<<<<<<<<<<<<<<<<<<<<<<<<<<<<<<<<<<<<<<<<<<<<<<<<<<<<<<<<<<<<<<<<<<<<<<<<<<<<<<",
"<<$$%+@%%%@*@%@@-@+@%*@++@+%-@@@++++@**@&-&@@@-+@%@@+@+-@@@-+@@&%%%+%+++@*%%-+++++%$+$+X--&-@@@@**<<",
"<<++%++%@%%%:-@@@@++@*@++-*@@%+--@++@*%%$&@@@-@+@@-@--++@@-@@@*@++--@%%%@&%++@@@X@X+--%&@@-+X@&@@&<<",
"<<%$%++-%+++*@**%$+@-@++*:-++@@-%-++@@%@+%@@%@%@@-&@--@@@+@&:*$+@++--%+@@*-@+@@%$%+%%@%-&@&-++@@X@<<",
"<<%@@X@@@%++*--@+$+-+++-*@+%+@--@@%-**+@-+@@@++@@-@@@@@@++@-&-@@%X+@--@@**@@@@@@+$&%++%@@@-&+@--.+<<",
"<<%$+++%+--@@-@@-&-@++%-@@@@+@*%++@%@-@@--@+%+X@@@@@+X@@+@-@@@@@-+++@--@@*@@&@@-*@+-+.%+X@-:-@@-@%<<",
"<<**@++%-+@-@@@+@@++-@@@@-@@%*@@-@@@@%-@%%@X@@.+@&&&--%@@@@%+@-@+@+@+X@%@@@-$+@-*$+%%-+@-X---+-%--<<",
"<<--X+%@-@+%@@@--++%-+@@%%%@++++@@@@--%-+++%@@@@@@.+--@@+--@%--++-@@X+++;@+-+&&@@%*+-+.@-@@-@+-@&%<<",
"<<@@@-@@@-++%-@+@@-@+-%-OX+%%+---+@+@+@@%+%-%%&@@+X+++--++%+-++++--+@@-+@;@++@;@+%-@+@@@@+@-++X%-%<<",
"<<@--@@@-+@-+++@@@@@@-@@+%@%%-+@@+@-@+@@@-%%@%%-%+-@.+--%X+-%+@-@@@-@X+--+@+---+%@++@&-@@@@-;@++%@<<",
"<<+@%++-@-@@@@+-@*@+@%+@-%@-++@+@-@*-@++@+-%@@%&@@%-@@@+@+--%-@+@++@--++@@-@+&@@-@%@@%@+%-@@@@@-+X<<",
"<<@&@@@@@%+@%@--@@@+@@%%%%+++-%-%@$-+--+%++++++%--@-+.+-%++@@@-@--++-++%--+@&-&&@+@@@-@+@+@-X+X@X@<<",
"<<@-%@-++%%%@+%@+$+@%%+++%%%+@X+-@&@%@++-@++++%%@%@+-@@@.+-X++@-%X+++X%+-X+@&@+-%X@@@---;+%-+--+%%<<",
"<<+@X%-@-@++--@+@&@*%-++++-+%@-@@+%@@@@-%@@%%%%$-@X@-+%@++-++-@@--@-@+%@-+X+-@+-%%%+@%+@-+-+@--@%%<<",
"<<@@-@-%@@+++%++:-@@@*%%%++++++@++@--@-@@--+@++%+@+--+---%@++-+-@X-:%++-+++--@@++@%--+X++XX-+%-+%%<<",
"<<-++@@%+X+-%+++@-@@-+--+@@%@@++@+-@---@+@+%-+++@+@@+%%%-%@%--@-;OO+++%+++---X-++-@@@@@@-++++X@@++<<",
"<<@%@@@-;+%%%@-@+@-%-@+@%+%@+--@-&@&@@-@+++-%-%+--@-+++-%%++%@@@+@+-+---+-+@-+-++@-++--@X@%+;-+X%&<<",
"<<@--%%+++%+@+--++@@@@-X@-@-+@-@+@++@@%@%%-@@+%-%++%-X@@+@X+;@@@@@+@--++@@@@@-@+@+@--@%%%++%++@@@&<<",
"<<%%+@%++@@%@-@%-+;--@-@+;@@%@@@@@X--@&@%%@@+++-@@@@;@+@-@X+++++@-+++%++@-@++@--@-@@-@%-%%+%%+@@@&<<",
"<<%%X@%+@@@---+-+-&@@@@+-+++X+@%-+&-&@----++++++-@+@%-+++@---;++++-@-++&-@++%+-@@+@-++-@+-++++-+$&<<",
"<<%-%@+@-@@+@&XX--X++&&@++%%+--@@-@+@%@:-%%--+++@@X-@@++-%-;@+@--@+-&+-@+@+-@%@+@@X-@@++@%@%&@+++@<<",
"<<+%%+@@%-+@@@%@++-@++;-@%%%%@@--@--++-@-@@:;%++++++@+-++@%@+X+@-@+@;&-X++-%-@@@-++--+-@@+@%-@++$-<<",
"<<%+%-@@%%%-++@@@+@@@X-@+++++++--@+@-%@@@-@@;+@X+--X+-++@-%@+--@@-++---@-@++%@%;X++X%@%-@X---+&&%%<<",
"<<%%%$O$$*@@.+%@-+++@-X@@@@+%-++@-@@--+@+-++++;-@@%+@++@-+@-+-++@@-@---X+--+@-&&@@++--&-&@-@-@@&*+<<",
"<<@%$+$O##@@---@X;++X--++@%%++@@@&+++&@+@-@-++++@%%%++%++-%@@+++@-@@@@@++@@++@@XX--@-&++@-&--@@--$<<",
"<<@%+*++*@$O+-@++@%+@---@++@XX%-@&@@@@&--+@-+@@@--%@@@-@@;@+%++%-%+-@@--@@+@-+--@++@@@+@@@--@@--**<<",
"<<%@+$%*@@#$+@@@%%%%@@@@%@X+--@-+@&&-&&+@-@@+@@@---%%@+--+-++%@%@++@-+@@;;--@-@@--++-++-@.@@@@-@#$<<",
"<<$%++*+*$%*$@%-%%@--++@%%+%-%@++-++@-@+@-X--@+-+@+++@+@@+++---@@---+-++++++%-@X@--++@+@---+@@X-*$<<",
"<<+@@+$$$*@$@@@@%@@@-%-%@@++@@@+-+-+-@@@---@+@%%@--@X+@%@%%%++@+%-@@-@%@+O+@+%--@--+&--@+-+@-+++$+<<",
"<<+X@%$*@>%&@@*@%@;@++@@@@@+@-@@++-+&+@@@-@@@%+++@@-%--%+@+@++@@@@+++++%%@;-+++-;+@;@++@@+X-X@@@%;<<",
"<<&%+%&*$***@@@@-X++@+++@%%%%@@++++++&@&+--%@@++X-@++%+@@@+-@-@-@%@@++-@++++-@+-++@;@+&@-@%X-;--$*<<",
"<<@@+@@@-%%+%+++%+++++-;+--@@+@@+@@-@@-@@-@+@@-@+--@%+.+X@%--++++%---X+@-@@-@+&&X+-@@@--@@-@&@-+%*<<",
"<<+O-@--X%%%++%+++++O++@@@+---%+X---@@;@+@-+@@--++@-+%++@@+%--$%%@---+@@%-+@+++&+-++&+@-@---&&@@*@<<",
"<<+--@+@++%++O--++%-+-++@%+%%%%+-+@@@---++%@@@--@++@@%++-%+%-@%$%-%+X@@%@@-++--&-&---+@@@:@X--X-@@<<",
"<<+++;&+%-+++++%+-+---@+@%%@@+@@-@@%+@@X-@+@-@@;-+@@%%++++%+@*@++@+%@X@@%-%+@&&+@@@-+@+;--:@@@:@@@<<",
"<<$$-+@@@+@@@-+++++%@@;@+@%@--++++-+-++@-;@%-%+%++++@+%@+.+@-@@@+++@-@++-@@@@-X@+-++--.+@@%-@@++-@<<",
"<<-@X@-+%%%@X%%%+%+%@+@@+++%-%++--+-+--++-%@%++++@-+++----+@@@-@++++%-++@---@---+-+++-+-@+@-@-@@%%<<",
"<<%$@@%@X@+@%++-+-%%-X+%-@+@-+%%--X+@--++%%++%%+++--+++-%--+@@@@+-+X@@+--%-@:+@-+-;+;@@--++--++%+@<<",
"<<$$@@@%%%@%+X+%%@@@@-@@--@@@+--++-++X+-%@@@@+@%@-+--+++&@-@--@@%+--++-@+@++@@@@-@X--@..+-++-X+++%<<",
"<<&@+@%%--++X+++%+%%++%@+++++%@@++--+-+@-@+@-%+@-:++@+%@@---@+@-@@@-X@;-+++-;-+---X@%@+@@X@@-@-+%-<<",
"<<++%+&%@;-+@+X--%%@++-%X+@@+@-%-@%+--+@@@+-@@++-:@---%@&@@@+-@+@%%-:X++@++@-@+@++++-@@----@+@--@@<<",
"<<.$%@@%@@-+-X@---@+@@@@+--+-%+@-@@-+@@@-@--+++--@%--+-%@++@-@@+@@++-@+X@--X+@%@++-++%%+++@++-@-%X<<",
"<<%%%%%%@+-+X--+@@++---%+@++@%@+X@-@++@+@-@X++@%--@%++%++++@X+--@@+-@++-@+@---@++++--%++@-@+@+-@++<<",
"<<%@@@*@X%+++X--@X@@@--@+-@-++-+@-@++@-+--+@++%+@--@+%++++-@OO+@+%%---X--@@+@;-+-;++;--+%--%@++++$<<",
"<<@@:@@@-X--+++@@--@@-%+++@@@+++@@-@+-@++++++-+%@@@@++-%@+-@X@-@-+-@X++++++-++++@-;++++--+%@@--@*&<<",
"<<@%@@@@;-&++@-@@@-X@@@-@+-@-@O+-+&+-@++@@@+@@+%:@@@-%++@@@-;@+++%;++;-@@@-X@+@+@@@+O+--+%-@-@--*@<<",
"<<@@@***@+;+@@+@-@@+-+@---X@%@+++-@+++@-@@&-;@;%@@+-+-+@%-%;@++++%-+%-+@;X-@;@@+-@@;%-+++X+%++@@@*<<",
"<<&*@@@@@@+-@++@-@@+@@@+@+X@+%@@-@+@+-++++@@-++@++@+@@-@@@@+X+-&@%@-@--@+++@-+++@*@%@--@-+@O$O$;$*<<",
"<<%*@--%@+-+++@@@X+@@;-@-----%-@-++--@+X+--+@--&-+@+@@-@+@++&++@%+@@&%@--+@-+@-;@%*@%+.+--$$O$O**$<<",
"<<@*-@-@@%@++-@+@-+-;--@--X+%@++X@@;@@--@-@++--@@+;%X-@@&-&-;@@-%@@%&@@--++++&@@@@+%-+++X+$*$O$+@*<<",
"<<@*-@@@--@++-@-X-%@+++X@@+X%++@@+@@@-@@@++X++++-%-+-@@@&&@&-;;@%+++@-%@--@-&@+X@---+@--++*O$-$O-@<<",
"<<%*@*@@%+@%.++--&@@-@++X@-+++--;++X+@@@;+--@++-++%--X@-%@%-%-+++++%%++++--++@@-@-@+++-@-%@@$*$$@@<<",
"<<%*@@-*%@+@+-+++++%+@@-@++-++@-;-++--%-;+@+@&@@%%@@@@@@@+---%+++%--%-++++-%@-+@--@@-+@-+@-@*$O*+@<<",
"<<@@*@@@--++-@%@++-@@-++-@@++OX%-+@;%++-@@-@@-&&-%%%@@@@@@++-@+-%+..+-+O@@+--@%@+-@-@@+-@+%@O@O$%@<<",
"<<@+@+@*@+@-+@@---@+@+.++--+--@@@+X@--++;:-@@&&&++--@--@+-++X+%@+++--%-;@-@+@@@-@@-@@%@@--@-$--O@@<<",
"<<+--+@X@+@-&-%@++%%+@--++@+%@%-%+@@@%%@-@@-@:-X@@---@@-+@@-+++--@-:;@@+X-X@@+@%+%%+@-@++*$*##*$$+<<",
"<<-@+@--@%%-@@++%++%--@@@----@%%++-%+%+%@+-+@@---@+&X@--@--@-@X--@@&@+++%@@@%%-%+@+++@+-$+$***$$++<<",
"<<@%++@@-@-@-%+-;++@%-@@%%--%@@%%%+++++@-%-%@X-@+-@+@--+X%-@@-@@++@+-+%+@@@%@@%@@%@+-@%@$+$++***%+<<",
"<<--++-@+++@-%+@+;@@%%%-%@+--@@@%-++++-@@@@%--@@+X+@@X@@+@@-;++@-@@&+-++@+%%%@X@--+++-+@%-%+$%$O$+<<",
"<<%@@;%-@+%+.+++@+@+@@@---@@@%+@%++-%--%++%++%+--@-+@-@+%@+--+++:@@@--+@-X-@%-@@%%++-++X+$$%%%$$+$<<",
"<<@--O++%%-@+X++;@@++@--@@@@@@+%%%@@@%@@+%@@++%%+@;+@++@++@@+++-;@@&%@%---++%%-+++%+@-+X+$%*-%-$$*<<",
"<<@%%++@@-@%%%++-@---+@++---+@-%%-@+@@+O+++@@%%-;+@@+-@%+@%++++@---@@@@@-@@@@%%%+@+++-%@*>;*++$++$<<",
"<<@-@-:@@@%@%+%%++@--@@%@@+++++++@@%@+++%%--@++++++;@+-%%%-%%++-@@X--@+-X.-@@&%++%-@+%@@$*-%+++$++<<",
"<<%*X---+++++-+@+X+--+@;-+-@@@--+@-+%++---@-:@@@@-@--++@$$+++#$%%#$**$:@.+@@--@++--++@+@@+X@-%-@$X<<",
"<<&%@@@%@+%%+@++-++%+@-@++@--@++%-+++++%@%@-@@-%@@+&+&+X+%$++%#***+#$**@++@@++-@+++@--+@@@--+:-@@+<<",
"<<+@--@@+--@-@@--@%+@--@+@%%-@+@++@%%@-+@%--@@@-@@@@++-@++++%%%%$*$+@@$@++++++@@+++%@@--@+-@-;@@@*<<",
"<<@&@@@@+@--%++%+@@%-@@:%+%@+@-+++--%++-@@@+--@@&&-@@@@---+-%+#$***$+@@@-@+X@-++%@-+@@++@-@@+@@@O*<<",
"<<@%@@&@&&@+++@--%%+@%@@++@@-@@++@@+-%+@-@@;@-@+&&-@;X-X%-%++$+$+++@*$*-@;+--@@--+-++@%-X----@@@@-<<",
"<<@@@@@-%++@@-@@%-@+@@@@@@%%+++-+X+++%+@@-@+--:@&@@@@--@+%%+**.-&+-%@-+@;@@;++;-+++-%%@%-+-:+@--@*<<",
"<<@@+@-@-@+-@@@@@@@-@@@@++-@-@++-@+--+++@X@@----@+-X@@@@%-O+@++-%@@---+@+X@--+++-@++++++@;X@-@+-%X<<",
"<<-@@&-@++@@++%@+@-+-@@%%--@+-@+@-%-@+-@%-@-++++@&--@@@@%%+.+++$@%@@-&%-++@@-@+&@-++@--@&+..-+@X*@<<",
"<<@++%@+++%%@@*++-%%--%%@%-++-@@@@@@+-%@+++@@@+++X+-+@%-@-+--+++@%+@+%%+@-@+++@--@@+@-%+&+X-X%+X%%<<",
"<<@+++@%++%+*-@@%@+%-%%@+@%++@-%@*@@++%-+@%+-%++@++X+-@+@@++-%++@%%%+%%%-%@++--@-@+--+%%-+-@@-%%%-<<",
"<<++@@@--@@@@>**++-++@+X+@---@@-*--@-+---+%-%+-++X@@+@@++;++#%++@@@-X++---@-&-++++@-@@%++@++@--@@%<<",
"<<@@%+-@%@%%@@**@+@+@+-+%@++@%@@%%%@@+X+-++%+X@%%-;;--@++X+--%+--@@%--+X+-@%;@+@++-@@-%+++-+++--@.<<",
"<<@@&O@-+++%%+@%%+@%@@-;--X@@@@@@@+++%+%---+@+X@%-;@@-@+++%%+++%-@@-@@X++@-@@@-@@--+;;%+XX@+@@--@+<<",
"<<&%@*@+@+@-&++%-----@+++@:@@--@%*%%%--%++%++@+@%+@@X--@;@+%+++--X+-%@-@@@%@&@@-++++@@%%;;@-@@++*-<<",
"<<%@@@@++%%&$@-%-%+%%++-@+@%+-%X+++%%%%%+@%+++--%++-++@X%++%-++%@@-@@@@---@@@X@-+%++OX+--++;;@++%%<<",
"<<+@@@%%+:*@%%++%%+-++@-@@@-@++-@++++%%+-%++%++--++@-@--%++-%%++--@+@-@@++--@-:@+++++%++++-;@@++@@<<",
"<<@@-@+--%+++--++-+%-X@@-@@@@-@&-@-++@+%%+@%+-++;$@#$$O$&&&@--&X@@@%@-@&-@O+@-+++@%@+%%@%-%++@@@+@<<",
"<<-@%@+--%@+@--+X@-@++@--&@+@@++@++@++++-@%@+-++$;*$#$$+$@@&&@@X@@-@@@@%--X--++@-+%-++-+%+%%@@-@*-<<",
"<<@--@+++%-+++++@&%@@++-++---+++@-@@@+%@%-++@;@@O$$**$+#$@@&@@@--@-+@+-@+%-+++@--%+@%@+-@+@%%++@-*<<",
"<<@%@++-++-++@@+-@+-%@@@++++++%%@@%+@-@--++%@@;;*@@*#**#+$&-&X&@@@@++--@%+-@++-++--@-%+--++%--@@@@<<",
"<<@+%@---@%@@;+X+@@@%-@&-@-@+@@-++-+.@@@@@@%@@+@*$@*++%$$$#$%@@--@-@+-+++++--+@@@-@@-@+@-@+@@-@@%@<<",
"<<@+%-@@+%@-;@@-++-@@@@%-@+--+%@-++@@--@+--@X@@+#O$$%%$$++#$-@X&-X-@--%--++++@-+++@@++-@+@-----@@%<<",
"<<@-%@%@X+-@@++%+@@@@@---@@@@@---+@-+-%@+@@@@@@+$O#@#%%$$%#*%@X@+-@@-+@+%%%X+&+&@-%@@-@@++@-%-@@@%<<",
"<<@@++++-@+--@--&@-@@@@@-@-@;-%+@@%+++@@@@-@@@+-@@@@+.$*%*$+@$%&+++&@@-++@+@-@+@-:-+--%@++&-@@@-**<<",
"<<@@&*@@-+X+++-++++X++;@@@@-;-@@@%@+-@%-+-+@+++@**&$@++++X%@%@%&++@-@+-+@++@+%-X+@-@&-+@-@@@++++&&<<",
"<<@X*@@@X-++@%++@-+-+O@@---++++--%-+@--++-@+@@@+@$&*@@*+@&%@+@&&-@@+-@%@@+%@@@--@&&++++&-@X-;%%+%&<<",
"<<+X@%%@++@+%-++-@X@-++-@@@-;@+@-%%-@@@+++-+++&@$&&&+-%$%+%++@X%+X@%%+++%+-----@@-+++@-&+++@%@%-@@<<",
"<<+&-@@@@X-@@-@+@@-@X--++@;--@@-@@%%%+@--+@-@+&%$-&@-@+$%+++X%%%X--%@-@++++-@@X@&&+--&@@+@-+%%++-@<<",
"<<-@@@++-@+@;;-+-@+&X-@+@%++@-+%@%+%+++-++@--@@++@+--+@@%+++@@@@%;-+-@@@;++;-@-@&-++@@@&-@--%--@%%<<",
"<<-@@-@.+@-++@@-X-+@-@&&++@++@+-++@%%@@%@-%%@@+@@@@@@-++++++@+-@@++-+---@;++--@-@+-+@@&:@@X@@%--%+<<",
"<<@-&&@%@@--+@-++++-X-----%-++-X%%++@--@+--@@@@@%&-@+.+++%@%%@+%%X+-++@@@@@@++X++-+@&--X@-@@%-@-%@<<",
"<<+@&-@@@-@@@@+X++@+--@@@@-%+@--%-+-@+@@+%%+&-&&@&@++@-%-++@+@-%+X%@-+X-:@@+++X+-;@@@@--@@@@-%-+@@<<",
"<<++@&@$@+%@XX&%%-@++@*@@%*+%*X++@%%$@%*%+**$$**@@*++*%%@%@@%@@@+++@--%@%%+$$@+%%-&%$$+&%@@@X@%&-%<<",
"<<@@X+&&@@%%%$$**@*-**+@@+++%@+@%@@%%@+%*@@**$%*@@@@@@@@%%+@*@@@%-@+%+++@&$+$&-&%+%%@$$+%%%%X$$%-%<<",
"<<<<<<<<<<<<<<<<<<<<<<<<<<<<<<<<<<<<<<<<<<<<<<<<<<<<<<<<<<<<<<<<<<<<<<<<<<<<<<<<<<<<<<<<<<<<<<<<<<<<",
"<<<<<<<<<<<<<<<<<<<<<<<<<<<<<<<<<<<<<<<<<<<<<<<<<<<<<<<<<<<<<<<<<<<<<<<<<<<<<<<<<<<<<<<<<<<<<<<<<<<<"
};
